<svg width="32" height="33" viewBox="0 0 32 33" fill="none" xmlns="http://www.w3.org/2000/svg">
<path d="M8.0501 24.7501C7.8001 24.7001 7.6001 24.6501 7.3501 24.5501C7.1001 24.4501 6.9001 24.4001 6.7001 24.3001C6.2501 24.1001 5.8501 23.8501 5.4501 23.5501C4.6501 23.0001 4.00011 22.2501 3.50011 21.3501C3.00011 20.5001 2.70011 19.5001 2.65011 18.5501C2.60011 18.0501 2.65011 17.6001 2.70011 17.1001C2.75011 16.8501 2.80011 16.6501 2.85011 16.4001C2.90011 16.1501 3.00011 15.9501 3.05011 15.7001L3.1001 16.4001C3.1001 16.6501 3.15011 16.8501 3.20011 17.1001C3.25011 17.5501 3.35011 18.0001 3.45011 18.4001C3.65011 19.2501 3.95011 20.0501 4.40011 20.8001C4.85011 21.5501 5.35011 22.2501 6.0001 22.9001C6.3001 23.2001 6.6501 23.5001 7.0001 23.8001C7.1501 23.9501 7.3501 24.1001 7.5501 24.2501L8.0501 24.7501Z" fill="#C6C6C6"/>
<path d="M7.9 26.5501C7.75 26.6501 7.55 26.7001 7.35 26.7501C7.15 26.8001 7 26.8501 6.8 26.8501C6.45 26.9001 6.05 26.9501 5.65 26.9001C4.9 26.8501 4.1 26.6501 3.45 26.3001C2.75 25.9501 2.15 25.4001 1.75 24.7501C1.55 24.4501 1.35 24.1001 1.2 23.7501C1.15 23.6001 1.1 23.4001 1.05 23.2001C1.05 23.0501 1 22.9001 1 22.7001C1.15 22.8501 1.25 22.9501 1.35 23.1001C1.5 23.2501 1.6 23.4001 1.7 23.5001C1.95 23.7501 2.15 24.0001 2.4 24.2001C2.9 24.6501 3.4 25.0501 4 25.3501C4.55 25.6501 5.2 25.9001 5.8 26.1001C6.1 26.2001 6.45 26.2501 6.8 26.3501C6.95 26.4001 7.15 26.4001 7.3 26.4501C7.55 26.5001 7.7 26.5001 7.9 26.5501Z" fill="#C6C6C6"/>
<path d="M19.2002 2.25C19.4502 2.3 19.6502 2.4 19.9002 2.5C20.1502 2.6 20.3502 2.7 20.5502 2.8C21.0002 3.05 21.4002 3.3 21.8002 3.6C22.6002 4.2 23.2502 5 23.7002 5.9C24.1502 6.8 24.4002 7.8 24.4002 8.75C24.4002 9.25 24.3502 9.7 24.2502 10.2C24.2002 10.45 24.1502 10.65 24.0502 10.9C23.9502 11.15 23.9002 11.35 23.8002 11.55L23.7502 10.85C23.7502 10.6 23.7502 10.4 23.7002 10.15L23.5502 8.8C23.4002 7.95 23.1002 7.1 22.7002 6.3C22.3002 5.5 21.8002 4.8 21.2002 4.15C20.9002 3.8 20.5502 3.5 20.2502 3.15C20.1002 3 19.9002 2.85 19.7002 2.7L19.2002 2.25Z" fill="#C6C6C6"/>
<path d="M23.5498 2.05005C23.7498 2.10005 23.8998 2.15005 24.0498 2.25005C24.1998 2.30005 24.3998 2.40005 24.5498 2.50005C24.8498 2.70005 25.1498 2.90005 25.4498 3.15005C25.9998 3.65005 26.4498 4.25005 26.6998 4.95005C26.9998 5.65005 27.0998 6.40005 26.9998 7.15005C26.9498 7.50005 26.8498 7.85005 26.7498 8.20005C26.6998 8.35005 26.5998 8.55005 26.5498 8.70005C26.4498 8.85005 26.3998 9.00005 26.2498 9.15005V8.15005C26.2498 7.80005 26.1998 7.50005 26.1998 7.20005C26.0998 6.55005 25.9998 5.95005 25.7498 5.40005C25.4998 4.80005 25.1998 4.30005 24.8498 3.75005C24.6498 3.50005 24.4498 3.20005 24.2498 2.95005C24.1498 2.80005 24.0498 2.70005 23.8998 2.55005C23.7998 2.30005 23.6498 2.15005 23.5498 2.05005Z" fill="#C6C6C6"/>
<path d="M5.00006 9.50002C4.00006 9.95002 3.65006 11.15 4.10006 12.15L10.4001 25.3L13.9001 23.65L7.60006 10.45C7.15006 9.45002 6.00006 9.00002 5.00006 9.50002Z" fill="#FED0AC"/>
<path d="M21.5499 19.95L25.2499 18.2L18.0499 3.20002C17.5499 2.20002 16.3499 1.75002 15.2999 2.25002C14.2999 2.75002 13.8499 3.95002 14.3499 5.00002L21.5499 19.95Z" fill="#FED0AC"/>
<path d="M15.3498 2.19999C15.2498 2.24999 15.1498 2.29999 15.0498 2.39999C15.9998 2.14999 16.9998 2.59999 17.4498 3.49999L24.6498 18.5L25.2998 18.2L18.0998 3.19999C17.5998 2.14999 16.3998 1.69999 15.3498 2.19999Z" fill="#E0A372"/>
<path d="M13.9 23.6L17.75 21.75L10.4 6.45004C9.89996 5.40004 8.59996 4.90004 7.54996 5.40004C6.49996 5.90004 6.04996 7.20004 6.54996 8.25004L13.9 23.6Z" fill="#FED0AC"/>
<path d="M7.55 5.45003C7.45 5.50003 7.35 5.55003 7.25 5.65003C8.2 5.40003 9.3 5.85003 9.75 6.80003L14.3 16.35L15.4 17L10.4 6.50003C9.9 5.40003 8.65 4.95003 7.55 5.45003Z" fill="#E0A372"/>
<path d="M17.15 20.55L21 18.7L13.65 3.39997C13.15 2.34997 11.85 1.84997 10.8 2.39997C9.74996 2.89997 9.29996 4.19997 9.79996 5.24997L17.15 20.55Z" fill="#FED0AC"/>
<path d="M10.8 2.35006C10.7 2.40006 10.6 2.50006 10.5 2.55006C11.45 2.30006 12.55 2.75006 13 3.70006L18.15 14.5001L19.25 15.1501L13.65 3.40006C13.15 2.30006 11.85 1.85006 10.8 2.35006Z" fill="#E0A372"/>
<path d="M5.0002 9.50004C4.9002 9.55004 4.8002 9.60004 4.7002 9.70004C5.6002 9.45004 6.5502 9.90004 6.9502 10.8L10.7002 18.65L11.8002 19.3L7.6002 10.5C7.1502 9.45004 6.0002 9.00004 5.0002 9.50004Z" fill="#E0A372"/>
<path d="M30.4 7.99996C29.0499 6.94996 26.85 8.09996 25.75 11.7C25 14.2 24.9 14.95 23.3 15.7L22.4 13.85C22.4 13.85 8.19995 20.7 8.74995 21.8C8.74995 21.8 10.4499 27.1 13.35 29.55C17.65 33.25 27.7 29.3 28.15 19.75C28.4 14.2 31.85 9.14996 30.4 7.99996Z" fill="#FED0AC"/>
<path d="M30.4002 8.00002C30.1502 7.80002 29.8502 7.70002 29.5502 7.65002C29.6002 7.70002 29.7002 7.70002 29.7502 7.75002C31.2502 8.90002 29.7002 11.55 28.8502 13.95C28.1502 15.85 27.5502 17.8 27.6502 19.7C28.0502 28 19.7002 31.95 14.7002 30.45C19.6002 32.5 28.7002 28.6 28.3002 19.95C28.2002 18.05 28.7502 16.2 29.5002 14.2C30.3002 11.8 31.8502 9.15002 30.4002 8.00002Z" fill="#E0A372"/>
<path d="M23.75 15.5C20.65 15.85 16.1 20.3 19.3 25.15C16.95 20.25 20.8 16.95 23.25 15.8C23.5 15.6 23.75 15.5 23.75 15.5Z" fill="#E0A372"/>
</svg>
